<svg width="240" height="240" viewBox="0 0 240 240" fill="none" xmlns="http://www.w3.org/2000/svg">
  <circle cx="120" cy="120" r="112" fill="#D90429"/>
  <circle cx="120" cy="120" r="108" stroke="#B3001E" stroke-width="6"/>
  <circle cx="120" cy="120" r="96" stroke="#F8E9E4" stroke-width="6"/>
  <path d="M65 76H89L111 117L133 76H157L122 133V182H100V133L65 76Z" fill="#21D4E8" stroke="#0E6B78" stroke-width="2"/>
  <path d="M164 76C183 76 195 86 195 102C195 113 188 121 177 125C191 129 199 138 199 152C199 171 185 182 161 182H119V76H164ZM141 95V117H159C167 117 172 113 172 106C172 99 167 95 159 95H141ZM141 136V163H160C171 163 177 159 177 150C177 141 171 136 160 136H141Z" fill="#21D4E8" stroke="#0E6B78" stroke-width="2"/>
</svg>
